<svg width="282px" height="114px" viewBox="0 0 282 114" version="1.1" xmlns="http://www.w3.org/2000/svg" xmlns:xlink="http://www.w3.org/1999/xlink"> <g id="generation-thailand-white" stroke="none" stroke-width="1" fill="none" fill-rule="evenodd"> <g id="Generation_Thailand_logo_WHITE" transform="translate(-0.000000, 0.000000)" fill="#FFFFFF" fill-rule="nonzero"> <g id="Group"> <path d="M281.5,29.4 C281.9,30.9 280.4,32.6 280,34.2 C280.6,35.6 280.1,36.2 279.2,37.9 C276.6,42.2 275.5,47.8 271.9,52.6 C272,49.6 273.8,46.5 275.6,43.9 C272.4,46.2 270.7,50.4 271.3,53.4 C271.8,53.5 271.4,52.9 271.9,52.6 C272.3,52.7 271.9,53.6 272.4,53 C272.6,53.3 271.9,53.9 271.7,53.9 C271.3,55.6 272.2,56.8 272.9,58.2 C273,58.4 272.6,58.6 272.6,58.8 C272.9,59.9 274.5,60.9 276,62.1 C276.7,61.9 277.5,62.3 278.3,62.6 C276.1,63.7 273.8,65 271.2,63.6 C270.7,63.4 271.3,63 271.2,62.8 C268.9,61.4 268.8,59.6 267.5,58.1 C268,57.7 267.2,57.1 267.9,57 C267.4,54.8 267.6,52.6 267.4,50.3 C268.7,48.4 268.7,46.8 269.4,45 C269.5,44.5 268.9,44.9 269,44.5 C270.8,40.1 271.7,36.1 273.5,31.4 C272.4,31.4 271.8,32.1 270.8,32.3 C270.6,32.3 270.2,32 269.9,32.1 C268.2,32.8 267.2,35.4 265.4,36 C265.8,34.8 267.2,34 268,32.8 C266.4,33.1 265.1,35.6 263.6,36.6 C264.5,34.2 266.9,32.4 268.6,30 C268.2,29.7 267.8,30.2 267.5,30.4 C267.7,29.1 269.1,28.5 269.8,27.6 C266.7,29 264.8,32.8 261.7,36.4 C262.2,36.4 262.6,35.3 263,34.9 C263.6,36.9 259.7,39 259.7,41.1 C260.5,40.8 260.6,39 261.7,39.3 C261,40.1 260.7,40.4 260.5,41.3 C258.6,41.6 259,44.4 257.9,45.7 C258.1,46.1 257.8,46.5 258.1,46.9 C255.1,52 253.1,57.6 248.7,62.5 C248.5,62.3 248.9,61.9 248.7,61.7 C247.8,61.2 247.2,62.9 246.4,62.9 C245.8,62.5 246.2,62 246.2,61.5 C243.5,61.7 242.7,58.5 242.4,56.9 C243,56.2 243.2,55.2 243.3,54.3 C249.8,46.2 252.8,38.3 256.7,30.4 C256.2,30.6 255.6,30.2 255,30.4 C256.1,29.3 257,29.1 257.7,28.1 C259,26.3 258.6,23.1 261,21.3 C262,21.9 263,22.2 264.4,23.4 C264.5,24.4 264.5,25.5 264.3,26.6 C264.6,26.7 265,27.4 265.2,26.8 C265.3,27.1 265.2,27.4 264.9,27.8 C265.3,27.8 265.6,27 266,26.9 C266.6,27.1 265.8,27.4 266.3,27.6 C266.8,27.5 267.2,27.3 267.6,26.9 C268,27.5 268.3,27.1 268.7,27.3 C269.9,25.9 271.7,24.7 273.6,24.8 C274,24.3 273.9,23.8 274.5,23.8 C275,24 274.8,24.3 274.5,24.6 C275.2,24.7 275.3,24.3 275.4,23.6 C276.5,24.9 277.5,24.3 278.2,24.8 C278.7,24.9 278.3,24.3 278.7,24.4 C279,25.2 279.4,25.9 280.6,26.6 C280,27.3 280.7,27.8 280,28.6 C280.3,28.8 280.5,29 280.8,29.2 C280.6,29.7 280.5,30.2 280.6,30.7 C280.9,30.5 281.2,29.7 281.5,29.4" id="Path"></path> <path d="M278.9,40.2 C279,40.5 278.9,40.8 278.6,41.2 C278,41 278.8,40.5 278.9,40.2" id="Path"></path> <path d="M275.6,43.9 C273.7,46.5 272,49.7 271.9,52.6 C271.4,52.8 271.8,53.5 271.3,53.4 C270.7,50.4 272.4,46.2 275.6,43.9" id="Path"></path> <path d="M241.9,41.6 C242.2,40.8 243.7,39.9 243,39.3 C242.7,40.1 241.9,40.9 241.9,41.6 M246.1,37.3 C246.9,36.5 247.6,34.8 247.4,33.8 C247,35 246.2,36.2 246.1,37.3 M250.7,29.2 C250.9,31 247.9,33.1 248.1,35 C248.6,35.4 248.9,34.3 249.3,34.2 C248.3,35.6 247.8,37.9 246.3,38.8 C244.9,42.2 243,45.6 239.9,48.9 C239.6,49.3 240.1,49.6 240.1,50 C239.4,51.5 238.4,51.2 237.6,52.5 C237.1,52 238.1,52 237.8,51.6 C236.5,52.7 235.4,54.8 234.1,56.3 C235.1,56.1 235.9,54.4 236.9,54.7 C236.1,56.7 233.1,58.2 231.4,59.9 C231.3,60.6 231,61.3 230.3,61.7 C229.9,61.3 230.2,60.8 230.5,60.2 C229.3,61.2 228,61.5 226.8,62.4 C226.6,62.2 227,61.8 226.8,61.6 C224.4,62.8 221.7,61.3 219.3,60.6 C216.3,55.5 216.4,48.6 221.5,43 C222.5,39.3 225,35.4 228.1,31.8 C231.2,28 233.4,22.8 237.5,21.5 C239.8,23.2 241.6,25 241.6,27.1 C237.7,29.9 234.5,33.4 231.1,37.8 C231.9,38.3 233.4,36.6 234.3,35.2 C234.5,37 230.3,38.6 230.8,40.8 C229.5,41.9 229.1,42.7 228,44.3 C228.4,44.6 228.5,43.2 229,43.8 C227.6,46.8 225.6,48.4 224.1,51.3 C224.7,51.1 225.2,49.9 225.8,49.3 C225.7,50.9 224.3,52.8 223.9,54.4 C225.3,53.7 226.5,53.2 227.9,52.4 C229.8,51.3 231.1,49.4 233,47.9 C234.4,46.9 236.6,46.4 237.4,44.4 C237.8,44 238.3,44 238.7,43.7 C242.4,39.5 245.7,34.9 247.4,30.2 C248.2,30 248.4,29.4 249.5,28.5 C249.1,28 248.9,29 248.4,28.5 C248.6,27.6 249.5,27.3 250.1,26.7 C251,27.1 249,29 249.2,29.9 C249.8,30.5 250.1,29.1 250.7,29.2" id="Shape"></path> <path d="M247.5,41.6 C247.6,42.3 247.1,43 246.5,43.3 C246.4,42.8 247.2,42.1 247.5,41.6" id="Path"></path> <path d="M239.5,52.5 C239.7,53.3 238.8,53.5 238.6,54.3 C238.1,53.8 239.3,53.1 239.5,52.5" id="Path"></path> <path d="M237.8,53.7 C238.4,53.9 237.6,54.8 237.3,54.1 C237.4,53.9 237.6,53.6 237.8,53.7" id="Path"></path> <path d="M222,9.7 C224.5,9.7 226.9,12.7 227,14.6 C225.3,15.7 223.5,16.1 223,18.6 C221.6,15.8 221.8,12.7 222,9.7" id="Path"></path> <path d="M202,55.5 C203.3,53.4 205.5,51.4 205.8,49.2 C204.2,51.2 202.5,53.3 202,55.5 M213.2,31.8 C213.9,32.9 213.3,34.1 213.7,35.3 C213.5,35.9 213.2,36.9 212.6,37.1 C213,37.6 213.3,36.9 213.7,37.5 C213,38.7 212,40 212.4,41 C208.2,46.8 203.2,54.3 200.8,60.8 C200.1,60.5 199.3,60.2 198.8,61 C198,60.7 198.9,60.1 198.1,59.7 C197.4,59.3 196.8,60.1 196.2,60.4 C195.3,59.2 195,57.8 194.3,56.6 C195.7,52.4 198.2,48 200,43.8 C201.1,41.9 202.4,40.3 203.3,38.7 C203.6,38.2 203.5,37.7 203.8,37.2 C204.9,35.3 206.4,33.8 207.1,31.8 C207.5,30.6 207.3,29.1 208.9,28.8 C210.7,29.5 211.7,30.5 213.2,31.8" id="Shape"></path> <path d="M150.6,42.4 C150.9,42 151.8,41.8 151.7,41.2 C151.3,41.3 150.4,41.9 150.6,42.4 M165.9,26.8 C164.3,27.4 162.5,27.3 161.1,29.4 C160,29.7 159.1,30.8 158.8,32 C155.5,34.3 154.2,37.6 151.8,40.8 C152.1,40.6 152.3,40.2 152.7,40.2 C152.3,42.5 149.5,44.4 149.1,46.6 C149,46.7 148.9,47 149.1,46.8 C149.4,46.2 149.5,46.1 150,46.1 C150,47.1 148.6,48.4 148.9,49.3 C155.5,43.9 161.9,34.7 165.9,26.8 M169.5,45.1 C169.7,44.7 169.4,44.4 169.2,44.1 C168.7,44.4 169.6,44.5 169.1,44.8 C169.3,44.9 169.4,45 169.5,45.1 M185.7,33.2 C187,31.1 189.3,30.2 189.4,28.5 C188.2,29.9 186.4,31.3 185.7,33.2 M213.3,19.1 C212.6,19.4 212.8,20.3 212.1,20.5 C211.7,19.5 212.3,18.3 210.7,17.4 C206.4,17.4 202.9,22.8 198.7,25.1 C196.9,26.1 194.3,26.2 192.6,29.2 C193.7,28.8 194.4,26.9 195.8,27 C193.6,30.4 190.6,34 187.7,36.6 C188.5,34.5 190.4,33.1 191.5,30.8 C188.5,33.7 185.6,37.1 182.8,41.3 C183.5,40.9 184.1,40.1 184.8,39.5 C184.7,41.3 182.7,43.4 182,45.2 C182.7,45.2 183.2,43.9 183.8,43.3 C183.7,43.8 183.4,45 182.9,44.9 C181.5,47.9 181.8,50.6 180.9,53.5 C181.1,53.5 181.4,53.4 181.6,53.2 C181.8,54.5 180,55.5 179.7,56.9 C179.4,59.4 179.5,62.9 176.5,64.1 C175.7,63.8 175,63.9 174.3,64.6 C173.8,64.1 173.4,64.1 173,64.4 C171,63.5 171.5,62.1 170.1,61.1 C170.2,60 169.7,58.9 170.1,57.8 C167.7,57.3 166,55.5 164.7,53.9 C164.9,53.6 165.1,53.7 165.2,53.5 C164,52.3 164.2,50.9 163.3,49.7 C163.6,47.8 163.2,45.9 163.1,44.1 C163.3,43.5 162.8,44.4 162.6,43.9 C162.6,43.5 162.4,43.1 163,42.5 C162.5,42.7 162.4,42.4 162.3,42 C160.3,44.4 160.2,46.5 158.1,48.9 C158,49.1 158.5,49.2 158.3,49.5 C155.6,54.7 151.5,58.3 147.4,60.4 C146.9,60.3 148.1,60.2 148.2,59.6 C147.3,58.9 145.4,59.6 145.1,58.2 C144.6,57.8 144.2,58.3 143.8,58 C143.1,56.4 141.8,54.9 141.6,53.1 C141.9,50.5 142.2,48 142.5,45.4 C145.3,41.2 146.4,36.4 149.6,32 C150.6,30.7 151.6,28.8 152.8,27.4 C155,24.8 157.8,21.4 160.9,20.6 C162.9,22 165,23.4 166.3,24.9 C166.6,25.3 166.6,25.7 166.4,26.2 C167,26.2 167.3,24.9 168,25.7 C168.1,25.4 168.9,24.9 168.3,24.7 C168.5,24.2 169,25.1 169.2,24.6 C169.7,25.5 170.3,25.2 170.9,25.9 C172.4,27.5 171.4,29.3 172,31.2 C171.5,31.9 171.2,32.5 171.2,33.1 C171.8,33.3 171.5,32.1 171.9,32.4 C172.6,33.6 171.1,35.2 171.8,36.4 C171.5,36.8 171.5,37.2 171.1,37.7 C171,37.9 171.4,38.1 171.5,38.2 C170.2,40.1 170.6,41.7 169.4,43.6 C170.3,43.9 170,42.5 170.6,42 C170.4,45.4 168.5,49.1 169.2,52.4 C170.1,53 170.9,53.6 171.7,54.2 C172.6,54 173.1,52.3 173.3,51.5 C176.6,43.3 182.9,35.2 186.4,26.9 C184.2,27.5 182.1,28.7 179.5,26.8 C179.4,25.8 177.9,25 177.9,24 C182.5,21.5 187.1,18.9 192,17.9 C195.1,12 198.4,5.7 201.6,0 C206.2,3 201.1,7.5 201.7,11.1 C200.4,12.4 200.8,13.4 200.8,14.5 C201.2,14.7 201.5,14.3 201.9,14.9 C202.4,14.5 202.9,14.9 203.6,14.9 C203.8,14.9 204,14.6 204.3,14.6 C204.5,14.6 204.7,15 204.8,15 C206.4,15 209.1,14.7 210.7,15.6 C212.3,16.3 213.2,17.7 213.3,19.1" id="Shape"></path> <path d="M188.4,39 C187.6,40.4 187.1,41.7 185.8,43.1 C185.8,42.9 185.7,42.6 185.7,42.4 C186.6,41.4 187.8,39.2 188.4,39" id="Path"></path> <path d="M133,31.1 C133.9,29.6 135.5,28.7 136,27.3 C135,27.8 133.1,30.5 133,31.1 M137.3,26.3 C137.6,25.7 138.2,25.7 137.9,25.1 C137.8,25.5 137.1,26 137.3,26.3 M140.2,21.9 C139.7,21.4 139.3,22.5 138.9,22.6 C139.4,22.9 139.7,22.1 140.2,21.9 M154.9,16.6 C154.9,17.2 154.6,18.1 154,18.4 C151.1,17.1 148.8,19.9 146.3,21 C146.1,21.3 146.1,21.7 145.8,22 C145.3,22.3 146,21.4 146.2,21.2 C145.9,20.7 145.8,21.6 145.5,21.1 C143.2,23.3 140.7,24 138.5,26.7 C140.8,25.4 143.1,23.5 145.3,21.9 C144.9,23.6 142.4,24.5 141.1,25.6 C138.2,29.9 133.5,34.3 130.3,39.2 C130.4,38.6 130.3,38.2 129.6,38.3 C129.8,37.8 130.2,37.2 130.2,36.7 C129.6,38 126.9,40.7 128.1,42.1 C128.4,42 128.8,40.9 129.4,40.4 C129.2,41.7 127.3,43.7 126.5,45.5 C127.2,45.6 127.4,44.6 127.8,44 C127.4,46.6 125.8,49.4 124.7,52.2 C124.3,52.5 125.4,52.6 125,52.9 C124.3,55.1 123.3,57.4 122.3,59.7 C121.2,59.2 121.6,58.5 121.4,57.8 C120.6,58.4 119.9,59.7 119,59.4 C118.9,59.1 119,58.8 118.9,58.5 C118.5,57.9 118.3,58.7 117.9,58.2 C117.2,57.4 117,56.5 116.2,55.8 C116.8,54.4 115.4,53.6 115.9,52.3 C116,51.9 116.5,51.6 116.7,51.2 C117.1,50.1 117.4,48.9 117.9,47.8 C120.7,42.2 121.7,35.7 124.4,30 C124.6,28.9 124.3,27.9 123.8,26.9 C124.5,26.1 125.5,27 126.2,26.2 C127.1,27.2 128.7,26.9 128.9,28.1 C129.8,27.8 130.6,27.1 131.3,26.2 C136.3,24.6 140.8,20.1 145.7,18.3 C146,17.9 145.4,17.7 146,17.3 C147.2,16.6 149.7,15.9 151.2,16.1 C152.6,16.1 153.7,15.4 154.9,16.6" id="Shape"></path> <path d="M149.8,21.3 C149,23.3 146.2,23.7 144.6,25.5 C144.1,26.1 143.5,27.2 142.6,27.7 C142.4,27.8 142,27.6 141.8,27.7 C141.2,28.1 140.5,29.1 139.6,29.8 C138.6,30.6 137.4,30.9 137.4,31.9 C136.6,31.9 136.1,33.2 135.4,33.7 C137.9,28.2 143,26 146.7,22.1 C147.7,22.8 148.9,21.6 149.8,21.3" id="Path"></path> <path d="M142.3,28.7 C141.5,29.6 141.6,30.6 140.6,31 C141,30.3 141.2,28.8 142.3,28.7" id="Path"></path> <path d="M137.8,31.8 C137.8,32.3 137.5,32.8 137.1,33.3 C136.7,32.6 137.3,32.2 137.8,31.8" id="Path"></path> <path d="M136.6,33.5 C136.7,34 136.3,35.1 135.6,34.8 C135.5,34.3 136.2,33.9 136.6,33.5" id="Path"></path> <path d="M134.9,35.6 C135.5,35.8 134.7,36.3 134.5,36.4 C134.2,36.2 134.5,35.4 134.9,35.6" id="Path"></path> <path d="M121.1,26.4 C121.5,26.7 121.7,26.1 122.1,26.7 C120,30.6 117.6,38.7 112.7,40.7 C112.4,41.1 112.7,41.3 112.4,41.7 C111.2,42.5 110,43.3 108.8,44.4 C105.4,44.3 104.9,49.7 102.7,51.8 C102.2,50.2 103.3,48.2 103.8,46.4 C100.9,49.3 101.1,52.7 101.7,55.5 C103.8,56.4 106.5,54.9 108.8,53.3 C110.9,51.9 113.1,49.8 115.3,47.8 C115.6,48.2 115.3,48.7 115.7,49.1 C112.7,52.3 112.1,56.6 109.4,59.6 C109.3,59.8 109.6,60 109.8,60.1 C108.5,60.9 107.4,62.2 105.9,61.8 C105.2,62.4 104.5,63.2 103.7,62.6 C104,62.3 104.8,62.2 104.8,61.7 C103.4,62.1 101.5,61.8 99.8,61.3 C98.9,61 99,60.3 98.3,59.4 C97.3,58.2 95.9,57.6 96.7,56.2 C95.8,55.9 96.3,55.3 95.6,55 C96.1,54.5 96.2,54 96.2,53.6 C95.4,51.5 96.6,49.1 96.6,46.9 C98.3,43.6 100.2,39.7 101.5,36.8 C102.6,36.1 102.4,35.3 103.6,34 C103.9,33.6 103.5,33.4 103.4,33.1 C105.5,30.5 106.8,27.7 109,25.5 C110,23 113.2,22.2 115,20.1 C115.9,20.3 116.7,19.7 117.6,19.6 C118.1,19.8 117.6,20 117.4,20.1 C117.8,20.1 118,20.8 118.9,21.4 C121.5,22 121.3,24.7 121.1,26.4" id="Path"></path> <path d="M104.5,51.2 C104.9,51.5 104.2,52.3 103.8,52.4 C103.7,52 104.4,51.5 104.5,51.2" id="Path"></path> <path d="M99,36.9 C99.3,37.5 98.3,38.3 97.9,39 C97.6,38.4 98.5,37.3 99,36.9" id="Path"></path> <path d="M8.3,35.4 C8.5,34.6 9.7,33.7 9.5,33 C8.8,33.8 8,34.7 8.3,35.4 M18.1,61.3 C21.2,57.3 24.9,54.1 26.8,49.2 C23.9,53 19.7,57.1 18.1,61.3 M26.1,51.5 C26.8,52.2 27.5,50.3 27.2,50 C26.5,50.7 26.6,51.1 26.1,51.5 M27.9,51.2 C28.5,49.7 29.3,49.5 29.9,48.2 C28.9,48.5 27.9,50.3 27.9,51.2 M63.1,27.3 C61.2,26.8 58.9,29.5 56.8,30.1 C52.3,34.1 48.9,37.7 45.5,43.3 C51.6,39.6 57.9,34.5 63.1,27.3 M31.2,48.5 C31.3,48.3 31.4,48.2 31.5,48 C31.3,48.2 31.2,48.4 31.2,48.5 M31.2,48.5 C29.9,50.5 27.7,53 27,55 C25.4,55.9 24,58.5 22.3,59.2 C19.6,62.8 16.6,64.1 13.6,65.8 C11.2,65.4 9.1,67.1 6.7,66.5 C6,66.2 6.5,65.7 6.6,65.2 C4.8,64.8 3.4,64 2.4,62.2 C1.7,60.9 1.5,58.2 0.9,56.4 C0.6,55.6 0.3,54.6 0.2,53.4 C-1.42108547e-14,51.6 0.4,50.3 -1.42108547e-14,48.6 C2.1,39.1 6.7,26.7 16,17.3 C19.9,13.4 24.2,8.7 28.8,6.6 C30,6.6 31.5,6.1 33.1,6.9 C34.9,7.8 36.4,9.3 37.3,10.7 C36.2,11.5 35,11.4 33.9,11.5 C32.8,12.1 31.8,13 30.6,13.2 C24.1,18.1 17.7,23.5 11.8,32.1 C11.9,34.1 10.6,35.3 9.6,37.3 C8.9,38.8 8.5,40.7 7.9,42.4 C6.7,45.7 5.7,48.9 5.5,51.9 C5.8,52.1 6,51.3 6.4,51.8 C5.2,52.9 6.4,53.5 5.2,54.6 C5.6,56.5 5.9,58.4 5.9,60.4 C8.8,61.1 11.4,57.6 14.8,55 C15.5,54.5 16.4,53.9 17.6,52.9 C22.1,49 28.3,41.7 30.7,35.9 C27,36.1 23.7,39.4 20.1,40.5 C19.4,39.8 18.7,39.8 18.1,39.9 C16.2,38.6 17.4,36.9 16,35.5 C23.5,28.9 31.6,26.2 39.6,22.4 C43.2,22 46.8,21.3 50.6,22.2 C51.3,22.8 51.9,23 52.5,23.2 C53.4,24.4 54.6,25.5 53.8,27 C57.7,24.9 61.4,21 65.7,20.9 C67.6,22.2 69.5,23.5 69.8,25.1 C68.7,27.3 68,29 66.2,31.4 C66.3,31.7 65.7,32.1 66.3,32.3 C65.6,33.8 64.3,36 62.7,37.2 C62.6,37.8 63.2,36.7 63.5,37.2 C62.8,38 62.1,39.6 61.2,39.4 C61.1,39 61.4,38.5 61.8,38 C60.3,40 58,41.1 57.1,42.7 C57,42.5 57.1,42.2 57.2,42 C53.1,46.1 48.7,48.7 44.2,50.5 C44.3,52.4 44.1,54.3 44.2,56.2 C48.9,55.7 53.1,52.5 57.5,50.3 C59.1,48.7 61.1,47.9 62.7,46.5 C64.8,44.7 66.3,43 68.6,40.7 C69.6,39.7 70.7,39 71.3,38.2 C72.6,36.2 72.9,33.8 74.3,31.8 C75.2,28.5 78.2,24.8 77.8,21.7 C79.1,21.2 80.7,22.5 82.3,23.7 C82.1,24.2 82.4,24.6 82.4,25 C83.5,24.5 84.5,23.8 85.6,23.2 C85.7,23.4 85.6,23.7 85.5,23.9 C89.3,21.9 94.1,19.7 98.2,24.5 C97.9,24.9 98.4,25.2 98,25.6 C102.2,27.9 101.2,32.2 98,34.8 C97.1,37.1 94.8,39.7 93.7,42.3 C92,45.5 88.5,47.5 88.2,50.4 C91.1,48.2 92.4,44.4 94.8,41.3 C94.3,43.8 92.1,46.6 90.6,49.3 C90.2,49.4 89.8,49.9 89.4,49.8 C89.3,51.4 88.1,51.7 88.1,53.2 C88.4,53.4 88.6,52.8 88.9,53 C89.2,51.7 90.5,50.3 90.8,49.5 C91.5,50.4 90.8,50.9 90.1,52.1 C91,52.2 91.7,50.6 92.6,50.4 C91.2,53.5 89.8,56.8 87,58.6 C85.9,57.9 85.1,58.3 84.1,58.6 C81.5,57 82.4,54.9 81.8,53.1 C82.6,50.5 84.4,48.5 85.3,45.8 C86.1,43.4 86.6,41 87.6,38.7 C88,37.9 88.3,37.1 88.2,36.3 C89.5,34.2 90.5,31.2 91.5,28.7 C89,27.9 87.1,31.8 84.9,32.9 C83.5,35.3 80.8,36.7 79.2,39 C77.6,41.3 77.2,44 75.5,46.3 C75.1,46.8 75.7,47.1 75.6,47.6 C74.3,48.2 73.9,49.4 73.1,50.7 C73.7,50.7 74,49.2 74.6,49.8 C73.4,52.3 71.4,55.5 70.5,58.7 C69.3,59.9 67.8,58.6 66.4,58.2 C64.8,57.1 64.9,55.8 63.4,54.8 C63.7,53.5 63.7,52.2 63.5,51 C65.4,48.3 66.7,45.8 68.2,43.2 C65.5,45.3 63.1,49.1 60.3,50.9 C60.6,50.6 60.7,50.2 60.6,50 C60.5,50.3 59.7,50.7 60.2,51 C60,51.1 59.8,51.2 59.6,51.4 C59.2,51.9 58.9,52.4 58.5,52.9 C58.3,53 58.8,53.5 59,53.4 C55.9,57.9 51.5,62.6 46.9,63.5 C46.8,62.6 45.1,62.2 44.5,62.6 C42.8,61.2 42.6,62.2 40.6,60.6 C40.7,60.4 40.9,60.2 41,60.1 C40.5,59.7 40,59.4 39.5,59 C37.3,55.3 37.5,51.3 38.6,47.1 C38.9,46.6 39.3,46.8 39.6,46.4 C41.2,39.9 47.7,34.3 52.3,28 C52.2,26.8 52.2,25.6 51.6,24.4 C47.9,22.3 45.2,27.2 42,28.5 C40.5,30.8 38.7,30.8 37.2,32.8 C37,32.7 36.7,32.4 36.6,32.5 C35.9,33.9 36.9,35.1 35.1,36.7 C34.8,37.2 35.8,36.5 35.5,37 C35,38.3 33.6,39.7 32.8,41 C33.9,41.1 33.4,40.1 34.1,39.7 C34.3,39.6 33.3,40.8 33.3,41.1 C33.2,41.3 33.6,41.4 33.5,41.7 C32.7,43.4 31.5,45.1 31,46.2 C33.9,44.7 35.5,38.7 37.6,35.9 C37.4,38.1 36.2,40.5 35.1,42.9 C33.7,44.7 32.3,46.6 32.5,48.1 C31.8,48.9 31.1,50.3 30.3,50.8 C31,49.8 30.9,49.2 31.2,48.5 M9.3,31.9 C9.5,31.7 9.8,31.9 10,31.8 C12.1,28.6 14.5,25.9 16.1,23.5 C13.5,25.7 11.4,29.5 9.3,31.9" id="Shape"></path> <path d="M74.9,48.5 C75.5,48.7 74.6,49.4 74.4,49.4 C74.3,49.2 74.5,48.4 74.9,48.5" id="Path"></path> <path d="M67.3,30 C67.7,29.7 68.1,29.6 68.6,30.1 C67.2,30.7 67.9,32.5 66.4,33.4 C66.1,32.4 67.8,31 67.3,30" id="Path"></path> <path d="M60.8,49.7 C60.9,50 60.8,50.3 60.5,50.6 C60.5,50.6 60.4,50.6 60.4,50.7 C60,50.5 60.7,50.1 60.8,49.7" id="Path"></path> <path d="M60.6,50.7 C60.6,50.7 60.5,50.7 60.6,50.7 C60.5,50.7 60.5,50.7 60.6,50.7 C60.5,50.7 60.5,50.7 60.6,50.7" id="Path"></path> <path d="M31.2,48.5 C31.3,48.4 31.4,48.2 31.5,48 C31.4,48.2 31.3,48.4 31.2,48.5" id="Path"></path> <path d="M181.3,78.4 L179.5,78.9 L176.4,79 C176.4,79 171.8,78.6 175.9,78.3 L178.6,78.3 L181.3,78.4 Z M170.4,78 L169.4,78.5 L167.7,78.6 C167.7,78.6 165.3,78.2 167.4,77.9 L168.9,77.9 L170.4,78 Z M277.1,74.3 C270.6,73.7 264.9,73.4 259.1,73.7 C256.6,73.8 254.1,73.8 251.7,73.8 C245.1,73.8 238.6,73.7 232,73.7 C227,73.6 222.1,73.3 217.1,73.4 C209.4,73.6 201.8,73.3 194.1,73.3 C190.8,73.3 187.5,73.3 184.2,73.4 C179.6,73.5 175.1,73.7 170.5,73.9 C165.6,74.1 160.8,74.3 155.9,74.4 C151.6,74.6 147.4,74.8 143.1,74.8 C136.3,74.8 129.6,74.7 122.8,74.7 C115.3,74.7 107.9,74.8 100.4,74.8 C92.5,74.8 84.7,74.8 76.8,74.8 C75,74.8 73.2,74.6 71.4,74.6 C67.4,74.6 63.5,75 59.5,74.8 C58.6,74.7 57.7,74.8 56.8,74.8 C52.2,74.9 47.6,74.9 43.1,75 C41.9,75 40.7,74.9 39.5,74.9 C34.6,75 29.8,75.1 24.9,75.1 C23.1,75.1 21.3,75.1 19.5,75.1 C18.7,75.1 17.9,75.1 17.1,75.2 C13,75.7 8.8,75.9 4.6,75.9 C4.7,76.8 4.8,77.7 4.9,78.6 C5,79.5 5.2,80.4 6.2,81.3 C7.3,81.5 8.7,82 10,82 C12.2,82 14.3,81.7 16.5,81.4 C18.5,81.2 20.4,80.9 22.4,80.7 C23.1,80.6 23.8,80.7 24.5,80.6 C29.6,79.7 34.8,79.8 39.9,79.4 C40.5,79.4 41.1,79.4 41.7,79.4 C43.3,79.4 44.9,79.5 46.5,79.5 C52.3,79.3 58,78.9 63.8,79.4 C66.1,79.6 68.3,80 70.6,79.8 C71,79.8 71.4,79.8 71.8,79.9 C76,80.5 80.1,80.6 84.3,80.5 C85.8,80.4 87.3,80.4 88.8,80.5 C91.7,80.8 94.6,80.5 97.4,80.3 C101.5,80 106.8,79.5 112.2,79 C113,78.9 113.8,78.9 114.6,79 C116.4,79.4 118.1,79.3 119.9,79.3 C122.1,79.3 124.3,79.4 126.5,79.6 C128.9,79.8 131.2,80.2 133.6,80.4 C141.2,81 148.7,81.4 156.3,81 C158.8,80.9 161.2,80.7 163.7,80.5 C166.8,80.3 169.9,80 172.9,80.1 C178.4,80.3 183.8,79.7 189.3,79.5 C192.9,79.4 196.4,79.1 200,78.9 C203.4,78.7 206.8,78.6 210.1,78.4 C211.9,78.3 213.7,78.2 215.4,78.1 C218.1,77.9 220.7,77.7 223.4,77.5 C225.1,77.4 226.8,77.3 228.4,77.2 C231.8,77 235.2,77 238.5,76.7 C240.4,76.6 242.3,76.5 244.1,76.6 C245.9,76.7 247.7,76.8 249.5,76.6 C252.7,76.2 255.8,76.1 259,76.1 C260,76.1 261,76.1 262,76 C264.9,75.8 267.3,75.1 270.2,74.8 C271.9,74.6 273.2,74.7 275,74.4 C275.3,74.7 276.2,74.7 277.1,74.3" id="Shape"></path> <path d="M113.3,80.9 L116,80.9 L118.7,81 L116.9,81.5 L113.8,81.6 C113.7,81.6 109.2,81.3 113.3,80.9" id="Path"></path> <path d="M48.9,79.7 L55.1,78.8 L61.3,78.1 L57.2,79.2 L50.2,80.3 C50.1,80.3 39.7,81.4 48.9,79.7" id="Path"></path> <path d="M128.8,80.4 L135,80.2 L141.2,80.2 L137,80.8 L129.9,81.1 C129.9,81.1 119.5,81.1 128.8,80.4" id="Path"></path> <path d="M75.5,80.8 L70,81.1 L64.5,81.1 L68.2,79.6 L74.4,79 C74.4,79 83.7,79.5 75.5,80.8" id="Path"></path> <path d="M37,80.9 L47.3,80.9 L57.6,81.1 L50.6,82 L38.9,82.2 C38.9,82.1 21.5,81.5 37,80.9" id="Path"></path> <path d="M106.6,80.2 L108.1,80.2 L109.6,80.3 L108.6,80.8 L106.9,80.9 C106.9,80.9 104.5,80.5 106.6,80.2" id="Path"></path> <path d="M53.7,80 L55.2,80 L56.7,80.1 L55.7,80.6 L54,80.7 C53.9,80.7 51.5,80.3 53.7,80" id="Path"></path> <path d="M24.1,81.5 L25.6,81.5 L27.1,81.6 L26.1,82.1 L24.4,82.2 C24.4,82.2 21.9,81.9 24.1,81.5" id="Path"></path> </g> <g id="Group" transform="translate(86.200000, 95.000000)"> <polygon id="Path" points="11.9 1.42108547e-14 11.9 3.1 7.8 3.1 7.8 18.6 4.1 18.6 4.1 3.1 0 3.1 0 1.42108547e-14"></polygon> <polygon id="Path" points="14.3 1.42108547e-14 18 1.42108547e-14 18 7.1 22.4 7.1 22.4 1.42108547e-14 26.1 1.42108547e-14 26.1 18.6 22.4 18.6 22.4 10.3 18.1 10.3 18.1 18.5 14.4 18.5 14.4 1.42108547e-14"></polygon> <path d="M33.2,1.42108547e-14 L37.8,1.42108547e-14 L42.7,18.6 L38.8,18.6 L37.9,14.7 L33.1,14.7 L32.2,18.6 L28.3,18.6 L33.2,1.42108547e-14 Z M33.7,11.6 L37.3,11.6 L35.5,3.3 L35.4,3.3 L33.7,11.6 Z" id="Shape"></path> <polygon id="Path" points="45.1 18.6 45.1 1.42108547e-14 48.8 1.42108547e-14 48.8 18.6 45.1 18.6"></polygon> <polygon id="Path" points="52.4 18.6 52.4 1.42108547e-14 56.1 1.42108547e-14 56.1 15.5 62.7 15.5 62.7 18.6"></polygon> <path d="M68.9,0 L73.5,0 L78.4,18.6 L74.5,18.6 L73.6,14.7 L68.7,14.7 L67.8,18.6 L63.9,18.6 L68.9,0 Z M69.4,11.6 L73,11.6 L71.2,3.3 L71.1,3.3 L69.4,11.6 Z" id="Shape"></path> <polygon id="Path" points="84.9 1.42108547e-14 89.4 12.7 89.5 12.7 89.5 1.42108547e-14 92.9 1.42108547e-14 92.9 18.6 88.6 18.6 84 5.6 83.9 5.6 83.9 18.6 80.5 18.6 80.5 1.42108547e-14"></polygon> <path d="M96.5,1.42108547e-14 L102.6,1.42108547e-14 C107.8,1.42108547e-14 108.7,3.6 108.7,9 C108.7,15.6 107.3,18.5 102.3,18.5 L96.4,18.5 L96.4,1.42108547e-14 L96.5,1.42108547e-14 Z M100.3,15.8 L102,15.8 C104.6,15.8 105.1,14.2 105.1,9.1 C105.1,4.9 104.8,2.7 101.9,2.7 L100.3,2.7 L100.3,15.8 Z" id="Shape"></path> </g> </g> </g> </svg>